<svg width="64" height="64" viewBox="0 0 64 64" xmlns="http://www.w3.org/2000/svg">
  <defs>
    <linearGradient id="bg" x1="0%" y1="0%" x2="100%" y2="100%">
      <stop offset="0%" stop-color="#0EA5E9"/>
      <stop offset="100%" stop-color="#1E3A8A"/>
    </linearGradient>
  </defs>

  <rect x="4" y="4" width="56" height="56" rx="14" fill="url(#bg)" stroke="#0C4A6E" stroke-width="1.5"/>

  <g fill="none" stroke="#FFFFFF" stroke-width="2.6" stroke-linecap="round" stroke-linejoin="round" opacity="0.9">
    <path d="M32 12.5
             a19.5 19.5 0 0 1 15 8.8
             M47 21.3
             a19.5 19.5 0 0 1 0 21.4
             M47 42.7
             a19.5 19.5 0 0 1 -15 8.8
             M32 51.5
             a19.5 19.5 0 0 1 -15 -8.8
             M17 42.7
             a19.5 19.5 0 0 1 0 -21.4
             M17 21.3
             a19.5 19.5 0 0 1 15 -8.8"
          stroke-dasharray="6.2 4.6"/>
  </g>

  <text x="32" y="39" font-family="Arial, Helvetica, sans-serif" font-size="19" font-weight="700"
        fill="#FFFFFF" text-anchor="middle" letter-spacing="-0.5">GM</text>
</svg>
